<svg width="16" height="17" viewBox="0 0 16 17" fill="none" xmlns="http://www.w3.org/2000/svg">
<g id="ph:text-t-fill">
<path id="Vector" d="M13 2.25H3C2.73478 2.25 2.48043 2.35536 2.29289 2.54289C2.10536 2.73043 2 2.98478 2 3.25V13.25C2 13.5152 2.10536 13.7696 2.29289 13.9571C2.48043 14.1446 2.73478 14.25 3 14.25H13C13.2652 14.25 13.5196 14.1446 13.7071 13.9571C13.8946 13.7696 14 13.5152 14 13.25V3.25C14 2.98478 13.8946 2.73043 13.7071 2.54289C13.5196 2.35536 13.2652 2.25 13 2.25ZM11.5 6.25C11.5 6.38261 11.4473 6.50979 11.3536 6.60355C11.2598 6.69732 11.1326 6.75 11 6.75C10.8674 6.75 10.7402 6.69732 10.6464 6.60355C10.5527 6.50979 10.5 6.38261 10.5 6.25V5.75H8.5V11.25H9.5C9.63261 11.25 9.75979 11.3027 9.85355 11.3964C9.94732 11.4902 10 11.6174 10 11.75C10 11.8826 9.94732 12.0098 9.85355 12.1036C9.75979 12.1973 9.63261 12.25 9.5 12.25H6.5C6.36739 12.25 6.24021 12.1973 6.14645 12.1036C6.05268 12.0098 6 11.8826 6 11.75C6 11.6174 6.05268 11.4902 6.14645 11.3964C6.24021 11.3027 6.36739 11.25 6.5 11.25H7.5V5.75H5.5V6.25C5.5 6.38261 5.44732 6.50979 5.35355 6.60355C5.25979 6.69732 5.13261 6.75 5 6.75C4.86739 6.75 4.74021 6.69732 4.64645 6.60355C4.55268 6.50979 4.5 6.38261 4.5 6.25V5.25C4.5 5.11739 4.55268 4.99021 4.64645 4.89645C4.74021 4.80268 4.86739 4.75 5 4.75H11C11.1326 4.75 11.2598 4.80268 11.3536 4.89645C11.4473 4.99021 11.5 5.11739 11.5 5.25V6.25Z" fill="black"/>
</g>
</svg>
