<svg xmlns="http://www.w3.org/2000/svg" width="24" height="25" viewBox="0 0 24 25" fill="none">
  <path d="M19.2806 18.7194C19.3502 18.7891 19.4055 18.8718 19.4432 18.9628C19.4809 19.0539 19.5003 19.1515 19.5003 19.25C19.5003 19.3486 19.4809 19.4461 19.4432 19.5372C19.4055 19.6282 19.3502 19.7109 19.2806 19.7806C19.2109 19.8503 19.1281 19.9056 19.0371 19.9433C18.9461 19.981 18.8485 20.0004 18.7499 20.0004C18.6514 20.0004 18.5538 19.981 18.4628 19.9433C18.3717 19.9056 18.289 19.8503 18.2193 19.7806L11.9999 13.5603L5.78055 19.7806C5.63982 19.9214 5.44895 20.0004 5.24993 20.0004C5.05091 20.0004 4.86003 19.9214 4.7193 19.7806C4.57857 19.6399 4.49951 19.449 4.49951 19.25C4.49951 19.051 4.57857 18.8601 4.7193 18.7194L10.9396 12.5L4.7193 6.28063C4.57857 6.1399 4.49951 5.94903 4.49951 5.75001C4.49951 5.55098 4.57857 5.36011 4.7193 5.21938C4.86003 5.07865 5.05091 4.99959 5.24993 4.99959C5.44895 4.99959 5.63982 5.07865 5.78055 5.21938L11.9999 11.4397L18.2193 5.21938C18.36 5.07865 18.5509 4.99959 18.7499 4.99959C18.949 4.99959 19.1398 5.07865 19.2806 5.21938C19.4213 5.36011 19.5003 5.55098 19.5003 5.75001C19.5003 5.94903 19.4213 6.1399 19.2806 6.28063L13.0602 12.5L19.2806 18.7194Z" fill="white"/>
</svg>